<?xml version="1.0" encoding="utf-8"?>
<svg version="1.1" xmlns="http://www.w3.org/2000/svg" xmlns:xlink="http://www.w3.org/1999/xlink" x="0px" y="0px"
	 viewBox="0 0 25 25" enable-background="new 0 0 25 25" xml:space="preserve">
<path fill="#3CA566" d="M12.5,6.8c0.8,0,1.8,0.1,2.8,0.3c1.3,0.3,2.4,1.3,2.6,2.6c0.2,1,0.3,1.9,0.3,2.8c0,0.9-0.1,1.9-0.3,2.9
	c-0.3,1.3-1.3,2.3-2.6,2.6c-1,0.2-2,0.4-2.8,0.4c-0.9,0-1.9-0.1-3-0.4c-1.1-0.3-2-1.2-2.3-2.3c-0.3-1.1-0.4-2.1-0.4-3
	c0-0.8,0.1-1.8,0.3-2.8c0.3-1.3,1.3-2.4,2.6-2.6C10.7,6.9,11.7,6.8,12.5,6.8 M12.5,0.5c-1.4,0-2.8,0.2-4,0.5C4.7,1.7,1.8,4.6,1,8.4
	c-0.3,1.3-0.5,2.7-0.5,4.1c0,1.6,0.2,3.1,0.6,4.5c0.8,3.4,3.5,6.1,6.9,7c1.4,0.3,2.9,0.6,4.5,0.6c1.5,0,2.9-0.2,4.2-0.5
	c3.7-0.8,6.5-3.7,7.3-7.4c0.3-1.3,0.5-2.7,0.5-4.2c0-1.4-0.2-2.8-0.4-4c-0.8-3.8-3.7-6.6-7.5-7.4C15.3,0.7,13.9,0.5,12.5,0.5
	L12.5,0.5z"/>
</svg>
